<?xml version="1.0" encoding="UTF-8"?>
<svg width="76px" height="68px" viewBox="0 0 76 68" version="1.1" xmlns="http://www.w3.org/2000/svg" xmlns:xlink="http://www.w3.org/1999/xlink">
    <!-- Generator: Sketch 43.2 (39069) - http://www.bohemiancoding.com/sketch -->
    <title>app-logos</title>
    <desc>Created with Sketch.</desc>
    <defs></defs>
    <g id="Page-1" stroke="none" stroke-width="1" fill="none" fill-rule="evenodd">
        <g id="app-logos" fill="#8A9A9E">
            <path d="M60.5367429,43.0770203 L60.5367429,43.0770203 C60.1236,43.2147492 59.7001714,43.3484441 59.2681714,43.4769525 C58.3121714,40.4255966 57.0230286,37.1817661 55.4447429,33.8295966 C56.9510286,30.5569525 58.1910286,27.3546136 59.1196,24.3228508 C59.8921714,24.5487492 60.6418857,24.7861729 61.3641714,25.0368508 C68.3527429,27.4629525 72.6150286,31.0502407 72.6150286,33.813461 C72.6150286,36.7576305 68.0110286,40.579461 60.5367429,43.0770203 M57.7984571,59.3255627 C57.3481714,61.7701051 56.4441714,63.4009525 55.3258857,64.0532915 C52.9458857,65.4426814 47.8567429,63.6366475 42.3681714,58.8737661 C41.7390286,58.3280373 41.1047429,57.7448508 40.4693143,57.1282407 C42.5967429,54.7810881 44.7236,52.0524441 46.7990286,49.0224102 C50.4498857,48.6956644 53.8990286,48.161461 57.0264571,47.4330542 C57.1801714,48.059461 57.3173143,48.6737661 57.4350286,49.2748169 C58.1910286,53.1248847 58.2990286,56.6049864 57.7984571,59.3255627 M38.2087429,54.7995288 C36.6796,53.1352576 35.1550286,51.2952237 33.6658857,49.3157322 C35.1110286,49.3733593 36.5853143,49.4027492 38.0836,49.4027492 C39.6224571,49.4027492 41.1441714,49.3675966 42.6424571,49.3001729 C41.1710286,51.3153932 39.6870286,53.1583085 38.2087429,54.7995288 M34.5247429,58.4767153 C31.5944571,61.0595627 28.6584571,62.8915288 26.0716,63.8129864 L26.0710286,63.8129864 C23.7458857,64.6416644 21.8938857,64.6652915 20.7744571,64.0141051 C18.3927429,62.6293254 17.4030286,57.2798 18.7533143,50.1063763 C18.9138857,49.2592576 19.0973143,48.4161729 19.3047429,47.5782746 C22.3978857,48.2680712 25.8213143,48.7642407 29.4807429,49.0639017 C31.5704571,52.0288169 33.7578857,54.7540034 35.9630286,57.1403424 C35.4944571,57.5973254 35.0144571,58.0433593 34.5247429,58.4767153 M17.0424571,43.6475288 C16.4161714,43.4665797 15.7944571,43.2706475 15.1784571,43.0591559 C11.4961714,41.7902068 8.45502857,40.1403424 6.37102857,38.3406475 C4.49788571,36.7230542 3.55217143,35.1169864 3.55217143,33.813461 C3.55217143,31.0404441 7.6516,27.5038678 14.4893143,25.0996644 C15.3476,24.7988508 16.2144571,24.5245458 17.0881714,24.2750203 C18.0333143,27.3747831 19.2727429,30.6157322 20.7687429,33.8924102 C19.2533143,37.2186475 17.9961714,40.511461 17.0424571,43.6475288 M20.7247429,3.77763051 C23.2510286,2.30237627 28.8367429,4.4057661 34.7253143,9.67807119 C35.1013143,10.0146136 35.4790286,10.3672915 35.8578857,10.7326475 C33.6647429,13.1086136 31.4967429,15.8130542 29.4258857,18.7606814 C25.8738857,19.0926136 22.4744571,19.6262407 19.3487429,20.3402407 C19.1561714,19.5622746 18.9830286,18.7802746 18.8298857,17.9936644 L18.8298857,17.9942407 C17.4098857,10.6790542 18.3527429,5.1618339 20.7247429,3.77763051 M38.1196,13.0573254 C39.6076,14.6835627 41.0973143,16.4982407 42.5636,18.4673593 C39.5904571,18.3261729 36.6116,18.3250203 33.6384571,18.4656305 C35.1053143,16.5143763 36.6081714,14.7020034 38.1196,13.0573254 M53.5750286,30.0682746 C52.8773143,28.732478 52.1533143,27.4110881 51.4030286,26.1052576 C50.6647429,24.8190203 49.8990286,23.5494949 49.1064571,22.2966814 C51.5161714,22.6038339 53.8247429,23.0118339 55.9921714,23.5103085 C55.3413143,25.6136983 54.5304571,27.8133254 53.5750286,30.0682746 M51.4161714,41.6351898 C52.1756,40.3063085 52.9058857,38.9612915 53.6058857,37.600139 C54.6156,39.9202068 55.4658857,42.1647831 56.1418857,44.2992915 C53.9527429,44.8029525 51.5887429,45.2086475 49.0973143,45.5106136 C49.8961714,44.2341729 50.6687429,42.9421729 51.4161714,41.6351898 M24.3344571,33.8918339 C25.3281714,31.8051559 26.3996,29.7576644 27.5464571,27.7522407 L27.5464571,27.7528169 C28.6921714,25.7479695 29.9138857,23.7863424 31.2076,21.8748508 C33.4533143,21.703122 35.7561714,21.6138 38.0836,21.6138 C40.4218857,21.6138 42.7276,21.7036983 44.9727429,21.8765797 C46.2533143,23.7851898 47.4670286,25.7399017 48.6110286,27.7349525 C49.7618857,29.7363424 50.8476,31.7740373 51.8664571,33.8451559 C50.8578857,35.9381729 49.7756,37.9948847 48.6213143,40.0101051 C47.4773143,42.0138 46.2693143,43.979461 44.9990286,45.9042068 C42.7584571,46.066139 40.4430286,46.149122 38.0836,46.149122 C35.7338857,46.149122 33.4481714,46.0753593 31.2464571,45.9312915 C29.9430286,44.0111559 28.7121714,42.0420373 27.5556,40.0279695 C26.4058857,38.0242746 25.3310286,35.9773593 24.3344571,33.8918339 M22.6196,30.0659695 C21.6801714,27.8185119 20.8761714,25.6090881 20.2196,23.4757322 C22.3744571,22.9899356 24.6721714,22.5923085 27.0658857,22.2909186 C26.2641714,23.5512237 25.4927429,24.8305458 24.7510286,26.1277322 C24.0098857,27.4231898 23.2996,28.7365119 22.6196,30.0659695 M22.6230286,37.717122 C23.3064571,39.0471559 24.0201714,40.3610542 24.7636,41.6576644 C25.5236,42.9802068 26.3138857,44.2843085 27.1350286,45.5682407 C24.6618857,45.290478 22.3293143,44.9130203 20.1756,44.4399017 C20.8418857,42.2690881 21.6636,40.0124102 22.6230286,37.717122 M42.1167429,9.12485085 C47.6916,4.2317322 52.9024571,2.29949492 55.2761714,3.68081695 C57.8047429,5.15146102 58.7881714,11.0818678 57.1996,18.8603763 C57.0956,19.3663424 56.9818857,19.8711559 56.8596,20.3742407 C53.7276,19.6446814 50.3253143,19.1018339 46.7630286,18.7652915 C44.6887429,15.7859695 42.5384571,13.0757661 40.3801714,10.7309186 C40.9458857,10.1811559 41.5247429,9.64522373 42.1167429,9.12485085 M62.4144571,21.9607153 L62.4144571,21.9607153 C61.6110286,21.6829525 60.8001714,21.4253593 59.9836,21.1885119 C60.1190286,20.6335627 60.2441714,20.0763085 60.3590286,19.5161729 C62.1990286,10.5079017 60.9961714,3.25149492 56.8876,0.862274576 C52.9487429,-1.42840339 46.5053143,0.960240678 39.9990286,6.67051186 C39.3578857,7.23468136 38.7310286,7.81498644 38.1190286,8.41085085 C37.7087429,8.01437627 37.2916,7.62539322 36.8670286,7.24505424 C30.0481714,1.13888475 23.2127429,-1.4341661 19.1081714,0.961969492 C15.1727429,3.25898644 14.0070286,10.0820373 15.6641714,18.6189186 C15.8287429,19.4643085 16.0150286,20.3050881 16.2218857,21.1412576 C15.2550286,21.4184441 14.3207429,21.7134949 13.4270286,22.0275627 C5.43217143,24.8386136 0.326457143,29.2442068 0.326457143,33.813461 C0.326457143,38.533122 5.8076,43.2671898 14.1350286,46.1375966 C14.8104571,46.3692576 15.4910286,46.5836305 16.1767429,46.7812915 C15.9538857,47.6814271 15.7561714,48.5879017 15.5836,49.500139 C14.0041714,57.8883424 15.2378857,64.549461 19.1630286,66.8332237 C23.2167429,69.1901729 30.0213143,66.7669525 36.6470286,60.9264441 C37.1704571,60.4648508 37.6961714,59.9744441 38.2230286,59.4615627 C38.8858857,60.1069864 39.5664571,60.7333932 40.2636,61.3396305 C46.6818857,66.9092915 53.0207429,69.158478 56.9424571,66.8689525 C60.9927429,64.5045119 62.3093143,57.3489525 60.5996,48.6426475 C60.4693143,47.9782068 60.3173143,47.2987831 60.1464571,46.6072576 C60.6247429,46.4649186 61.0938857,46.3179695 61.5510286,46.1646814 C70.2081714,43.2729525 75.8401714,38.5965119 75.8401714,33.813461 C75.8401714,29.2274949 70.5704571,24.7925119 62.4144571,21.9607153" id="Fill-1"></path>
            <path d="M38.0836,40.6143831 C41.8081714,40.6143831 44.8264571,37.5693661 44.8264571,33.8132305 C44.8264571,30.0582475 41.8081714,27.0132305 38.0836,27.0132305 C34.3590286,27.0132305 31.3401714,30.0582475 31.3401714,33.8132305 C31.3401714,37.5693661 34.3590286,40.6143831 38.0836,40.6143831" id="Fill-3"></path>
        </g>
    </g>
</svg>