<?xml version="1.0" encoding="UTF-8"?>
<svg width="84px" height="97px" viewBox="0 0 84 97" version="1.1" xmlns="http://www.w3.org/2000/svg" xmlns:xlink="http://www.w3.org/1999/xlink">
    <!-- Generator: Sketch 43.2 (39069) - http://www.bohemiancoding.com/sketch -->
    <title>element-12</title>
    <desc>Created with Sketch.</desc>
    <defs></defs>
    <g id="Page-1" stroke="none" stroke-width="1" fill="none" fill-rule="evenodd">
        <g id="element-12">
            <polygon id="Polygon-Copy-53" fill="#FFFFFF" points="42.02147 16 70.0429399 32.1782032 70.0429399 64.5346097 42.02147 80.7128129 14 64.5346097 14 32.1782032"></polygon>
            <path d="M1.5,24.9724319 L1.5,71.7625951 L42.02147,95.1576766 L82.5429399,71.7625951 L82.5429399,24.9724319 L42.02147,1.57735027 L1.5,24.9724319 Z M83.5429399,24.3950816 L83.5429399,72.3399453 L42.02147,96.3123772 L0.5,72.3399453 L0.5,24.3950816 L42.02147,0.422649731 L83.5429399,24.3950816 Z" id="Polygon-Copy-73" fill="#FFFFFF" fill-rule="nonzero"></path>
            <path d="M37.546875,55 L35.9648438,55 L35.9648438,44.8242188 C35.9648438,43.9778604 35.9908852,43.1770871 36.0429688,42.421875 C35.9062493,42.5585944 35.7532561,42.7018222 35.5839844,42.8515625 C35.4147127,43.0013028 34.6399809,43.6360621 33.2597656,44.7558594 L32.4003906,43.6425781 L36.1796875,40.7226562 L37.546875,40.7226562 L37.546875,55 Z M52.3613281,55 L42.9765625,55 L42.9765625,53.6035156 L46.7363281,49.8242188 C47.8821672,48.6653588 48.637368,47.8385441 49.0019531,47.34375 C49.3665383,46.8489559 49.639973,46.3671898 49.8222656,45.8984375 C50.0045582,45.4296852 50.0957031,44.9251329 50.0957031,44.3847656 C50.0957031,43.6230431 49.8645856,43.019208 49.4023438,42.5732422 C48.9401019,42.1272764 48.2988322,41.9042969 47.4785156,41.9042969 C46.8860647,41.9042969 46.3245469,42.0019521 45.7939453,42.1972656 C45.2633437,42.3925791 44.6725293,42.7473933 44.0214844,43.2617188 L43.1621094,42.1582031 C44.4772201,41.0644477 45.9094975,40.5175781 47.4589844,40.5175781 C48.8001369,40.5175781 49.8515587,40.8609992 50.6132812,41.5478516 C51.3750038,42.234704 51.7558594,43.1575463 51.7558594,44.3164062 C51.7558594,45.2213587 51.5019557,46.116532 50.9941406,47.0019531 C50.4863256,47.8873742 49.5358143,49.0071547 48.1425781,50.3613281 L45.0175781,53.4179688 L45.0175781,53.4960938 L52.3613281,53.4960938 L52.3613281,55 Z" id="12-copy" fill="#8A9A9E"></path>
        </g>
    </g>
</svg>