<?xml version="1.0" encoding="UTF-8"?>
<svg width="84px" height="97px" viewBox="0 0 84 97" version="1.1" xmlns="http://www.w3.org/2000/svg" xmlns:xlink="http://www.w3.org/1999/xlink">
    <!-- Generator: Sketch 43.2 (39069) - http://www.bohemiancoding.com/sketch -->
    <title>element-11</title>
    <desc>Created with Sketch.</desc>
    <defs></defs>
    <g id="Page-1" stroke="none" stroke-width="1" fill="none" fill-rule="evenodd">
        <g id="element-11">
            <polygon id="Polygon-Copy-49" fill="#FFFFFF" points="42.02147 16 70.0429399 32.1782032 70.0429399 64.5346097 42.02147 80.7128129 14 64.5346097 14 32.1782032"></polygon>
            <path d="M1.5,24.9724319 L1.5,71.7625951 L42.02147,95.1576766 L82.5429399,71.7625951 L82.5429399,24.9724319 L42.02147,1.57735027 L1.5,24.9724319 Z M83.5429399,24.3950816 L83.5429399,72.3399453 L42.02147,96.3123772 L0.5,72.3399453 L0.5,24.3950816 L42.02147,0.422649731 L83.5429399,24.3950816 Z" id="Polygon-Copy-69" fill="#FFFFFF" fill-rule="nonzero"></path>
            <path d="M37.546875,55 L35.9648438,55 L35.9648438,44.8242188 C35.9648438,43.9778604 35.9908852,43.1770871 36.0429688,42.421875 C35.9062493,42.5585944 35.7532561,42.7018222 35.5839844,42.8515625 C35.4147127,43.0013028 34.6399809,43.6360621 33.2597656,44.7558594 L32.4003906,43.6425781 L36.1796875,40.7226562 L37.546875,40.7226562 L37.546875,55 Z M48.9824219,55 L47.4003906,55 L47.4003906,44.8242188 C47.4003906,43.9778604 47.426432,43.1770871 47.4785156,42.421875 C47.3417962,42.5585944 47.1888029,42.7018222 47.0195312,42.8515625 C46.8502596,43.0013028 46.0755277,43.6360621 44.6953125,44.7558594 L43.8359375,43.6425781 L47.6152344,40.7226562 L48.9824219,40.7226562 L48.9824219,55 Z" id="11-copy" fill="#8A9A9E"></path>
        </g>
    </g>
</svg>