<?xml version="1.0" encoding="UTF-8"?>
<svg width="84px" height="97px" viewBox="0 0 84 97" version="1.1" xmlns="http://www.w3.org/2000/svg" xmlns:xlink="http://www.w3.org/1999/xlink">
    <!-- Generator: Sketch 43.2 (39069) - http://www.bohemiancoding.com/sketch -->
    <title>element-13</title>
    <desc>Created with Sketch.</desc>
    <defs></defs>
    <g id="Page-1" stroke="none" stroke-width="1" fill="none" fill-rule="evenodd">
        <g id="element-13">
            <polygon id="Polygon-Copy-51" fill="#FFFFFF" points="42.02147 16 70.0429399 32.1782032 70.0429399 64.5346097 42.02147 80.7128129 14 64.5346097 14 32.1782032"></polygon>
            <path d="M1.5,24.9724319 L1.5,71.7625951 L42.02147,95.1576766 L82.5429399,71.7625951 L82.5429399,24.9724319 L42.02147,1.57735027 L1.5,24.9724319 Z M83.5429399,24.3950816 L83.5429399,72.3399453 L42.02147,96.3123772 L0.5,72.3399453 L0.5,24.3950816 L42.02147,0.422649731 L83.5429399,24.3950816 Z" id="Polygon-Copy-71" fill="#FFFFFF" fill-rule="nonzero"></path>
            <path d="M37.546875,55 L35.9648438,55 L35.9648438,44.8242188 C35.9648438,43.9778604 35.9908852,43.1770871 36.0429688,42.421875 C35.9062493,42.5585944 35.7532561,42.7018222 35.5839844,42.8515625 C35.4147127,43.0013028 34.6399809,43.6360621 33.2597656,44.7558594 L32.4003906,43.6425781 L36.1796875,40.7226562 L37.546875,40.7226562 L37.546875,55 Z M51.8242188,44.0820312 C51.8242188,44.9934941 51.5686875,45.7389294 51.0576172,46.3183594 C50.5465469,46.8977894 49.8222703,47.2851553 48.8847656,47.4804688 L48.8847656,47.5585938 C50.0306047,47.7018236 50.8802056,48.0664033 51.4335938,48.6523438 C51.9869819,49.2382842 52.2636719,50.0065057 52.2636719,50.9570312 C52.2636719,52.3177151 51.7916714,53.3642542 50.8476562,54.0966797 C49.9036411,54.8291052 48.5625087,55.1953125 46.8242188,55.1953125 C46.0690066,55.1953125 45.3772818,55.1383469 44.7490234,55.0244141 C44.1207651,54.9104812 43.5104196,54.7102879 42.9179688,54.4238281 L42.9179688,52.8808594 C43.5364614,53.1868505 44.1956345,53.4195956 44.8955078,53.5791016 C45.5953811,53.7386076 46.2578094,53.8183594 46.8828125,53.8183594 C49.3502728,53.8183594 50.5839844,52.8515722 50.5839844,50.9179688 C50.5839844,49.1861893 49.2233209,48.3203125 46.5019531,48.3203125 L45.0957031,48.3203125 L45.0957031,46.9238281 L46.5214844,46.9238281 C47.6347712,46.9238281 48.5169238,46.6780624 49.1679688,46.1865234 C49.8190137,45.6949845 50.1445312,45.0130252 50.1445312,44.140625 C50.1445312,43.4440069 49.9052758,42.8971374 49.4267578,42.5 C48.9482398,42.1028626 48.2988322,41.9042969 47.4785156,41.9042969 C46.8535125,41.9042969 46.2643257,41.9889314 45.7109375,42.1582031 C45.1575493,42.3274748 44.5260452,42.6399717 43.8164062,43.0957031 L42.9960938,42.0019531 C43.5820342,41.5397112 44.2574832,41.1767591 45.0224609,40.9130859 C45.7874387,40.6494127 46.5930947,40.5175781 47.4394531,40.5175781 C48.8261788,40.5175781 49.903642,40.8349578 50.671875,41.4697266 C51.440108,42.1044954 51.8242188,42.9752549 51.8242188,44.0820312 Z" id="13-copy" fill="#8A9A9E"></path>
        </g>
    </g>
</svg>