<?xml version="1.0" encoding="UTF-8"?>
<svg width="84px" height="97px" viewBox="0 0 84 97" version="1.1" xmlns="http://www.w3.org/2000/svg" xmlns:xlink="http://www.w3.org/1999/xlink">
    <!-- Generator: Sketch 43.2 (39069) - http://www.bohemiancoding.com/sketch -->
    <title>element-8</title>
    <desc>Created with Sketch.</desc>
    <defs></defs>
    <g id="Page-1" stroke="none" stroke-width="1" fill="none" fill-rule="evenodd">
        <g id="element-8">
            <polygon id="Polygon-Copy-42" fill="#FFFFFF" points="42.02147 16 70.0429399 32.1782032 70.0429399 64.5346097 42.02147 80.7128129 14 64.5346097 14 32.1782032"></polygon>
            <path d="M1.5,24.9724319 L1.5,71.7625951 L42.02147,95.1576766 L82.5429399,71.7625951 L82.5429399,24.9724319 L42.02147,1.57735027 L1.5,24.9724319 Z M83.5429399,24.3950816 L83.5429399,72.3399453 L42.02147,96.3123772 L0.5,72.3399453 L0.5,24.3950816 L42.02147,0.422649731 L83.5429399,24.3950816 Z" id="Polygon-Copy-62" fill="#FFFFFF" fill-rule="nonzero"></path>
            <path d="M41.9853516,40.5175781 C43.2874414,40.5175781 44.3193321,40.8203095 45.0810547,41.4257812 C45.8427772,42.031253 46.2236328,42.8678332 46.2236328,43.9355469 C46.2236328,44.6386754 46.005536,45.279945 45.5693359,45.859375 C45.1331358,46.438805 44.4365282,46.9661435 43.4794922,47.4414062 C44.6383521,47.9947944 45.4619116,48.5758433 45.9501953,49.1845703 C46.438479,49.7932973 46.6826172,50.4980429 46.6826172,51.2988281 C46.6826172,52.4837299 46.2692099,53.4293584 45.4423828,54.1357422 C44.6155558,54.8421259 43.4827546,55.1953125 42.0439453,55.1953125 C40.5205002,55.1953125 39.3486369,54.861657 38.5283203,54.1943359 C37.7080037,53.5270149 37.2978516,52.5813863 37.2978516,51.3574219 C37.2978516,49.7232991 38.2939354,48.4505254 40.2861328,47.5390625 C39.3876908,47.0312475 38.743166,46.4827503 38.3525391,45.8935547 C37.9619121,45.304359 37.7666016,44.6451859 37.7666016,43.9160156 C37.7666016,42.8808542 38.1490847,42.0556671 38.9140625,41.4404297 C39.6790403,40.8251922 40.7027931,40.5175781 41.9853516,40.5175781 Z M38.8994141,51.3964844 C38.8994141,52.1777383 39.1712212,52.7864562 39.7148438,53.2226562 C40.2584663,53.6588563 41.021805,53.8769531 42.0048828,53.8769531 C42.9749397,53.8769531 43.7301405,53.6490908 44.2705078,53.1933594 C44.8108751,52.7376279 45.0810547,52.1126342 45.0810547,51.3183594 C45.0810547,50.6868458 44.827151,50.125328 44.3193359,49.6337891 C43.8115209,49.1422501 42.9261131,48.6653669 41.6630859,48.203125 C40.693029,48.6197937 39.989911,49.0804011 39.5537109,49.5849609 C39.1175108,50.0895208 38.8994141,50.6933559 38.8994141,51.3964844 Z M41.9658203,41.8359375 C41.1520142,41.8359375 40.5139997,42.031248 40.0517578,42.421875 C39.5895159,42.812502 39.3583984,43.3333301 39.3583984,43.984375 C39.3583984,44.5833363 39.5504538,45.0976541 39.9345703,45.5273438 C40.3186868,45.9570334 41.0283151,46.3867166 42.0634766,46.8164062 C42.9944708,46.4257793 43.6536439,46.0058616 44.0410156,45.5566406 C44.4283874,45.1074196 44.6220703,44.5833363 44.6220703,43.984375 C44.6220703,43.3268196 44.3860701,42.8043639 43.9140625,42.4169922 C43.4420549,42.0296205 42.7926474,41.8359375 41.9658203,41.8359375 Z" id="8-copy" fill="#8A9A9E"></path>
        </g>
    </g>
</svg>