<?xml version="1.0" encoding="UTF-8"?>
<svg width="84px" height="97px" viewBox="0 0 84 97" version="1.1" xmlns="http://www.w3.org/2000/svg" xmlns:xlink="http://www.w3.org/1999/xlink">
    <!-- Generator: Sketch 43.2 (39069) - http://www.bohemiancoding.com/sketch -->
    <title>element-10</title>
    <desc>Created with Sketch.</desc>
    <defs></defs>
    <g id="Page-1" stroke="none" stroke-width="1" fill="none" fill-rule="evenodd">
        <g id="element-10">
            <polygon id="Polygon-Copy-48" fill="#FFFFFF" points="42.02147 16 70.0429399 32.1782032 70.0429399 64.5346097 42.02147 80.7128129 14 64.5346097 14 32.1782032"></polygon>
            <path d="M1.5,24.9724319 L1.5,71.7625951 L42.02147,95.1576766 L82.5429399,71.7625951 L82.5429399,24.9724319 L42.02147,1.57735027 L1.5,24.9724319 Z M83.5429399,24.3950816 L83.5429399,72.3399453 L42.02147,96.3123772 L0.5,72.3399453 L0.5,24.3950816 L42.02147,0.422649731 L83.5429399,24.3950816 Z" id="Polygon-Copy-68" fill="#FFFFFF" fill-rule="nonzero"></path>
            <path d="M37.546875,55 L35.9648438,55 L35.9648438,44.8242188 C35.9648438,43.9778604 35.9908852,43.1770871 36.0429688,42.421875 C35.9062493,42.5585944 35.7532561,42.7018222 35.5839844,42.8515625 C35.4147127,43.0013028 34.6399809,43.6360621 33.2597656,44.7558594 L32.4003906,43.6425781 L36.1796875,40.7226562 L37.546875,40.7226562 L37.546875,55 Z M52.4394531,47.8417969 C52.4394531,50.3092571 52.0504596,52.1516866 51.2724609,53.3691406 C50.4944623,54.5865946 49.3046955,55.1953125 47.703125,55.1953125 C46.166659,55.1953125 44.9980509,54.5719463 44.1972656,53.3251953 C43.3964804,52.0784443 42.9960938,50.2506631 42.9960938,47.8417969 C42.9960938,45.3548053 43.3834597,43.5091206 44.1582031,42.3046875 C44.9329466,41.1002544 46.1145754,40.4980469 47.703125,40.4980469 C49.2526119,40.4980469 50.429358,41.1262958 51.2333984,42.3828125 C52.0374389,43.6393292 52.4394531,45.4589725 52.4394531,47.8417969 Z M44.6367188,47.8417969 C44.6367188,49.9186302 44.8808569,51.4306593 45.3691406,52.3779297 C45.8574243,53.3252 46.6354113,53.7988281 47.703125,53.7988281 C48.7838596,53.7988281 49.5667293,53.3186897 50.0517578,52.3583984 C50.5367863,51.3981072 50.7792969,49.8925884 50.7792969,47.8417969 C50.7792969,45.7910054 50.5367863,44.2887417 50.0517578,43.3349609 C49.5667293,42.3811801 48.7838596,41.9042969 47.703125,41.9042969 C46.6354113,41.9042969 45.8574243,42.3746698 45.3691406,43.3154297 C44.8808569,44.2561896 44.6367188,45.7649636 44.6367188,47.8417969 Z" id="10-copy" fill="#8A9A9E"></path>
        </g>
    </g>
</svg>