<?xml version="1.0" encoding="UTF-8"?>
<svg width="84px" height="97px" viewBox="0 0 84 97" version="1.1" xmlns="http://www.w3.org/2000/svg" xmlns:xlink="http://www.w3.org/1999/xlink">
    <!-- Generator: Sketch 43.2 (39069) - http://www.bohemiancoding.com/sketch -->
    <title>element-9</title>
    <desc>Created with Sketch.</desc>
    <defs></defs>
    <g id="Page-1" stroke="none" stroke-width="1" fill="none" fill-rule="evenodd">
        <g id="element-9">
            <polygon id="Polygon-Copy-46" fill="#FFFFFF" points="42.02147 16 70.0429399 32.1782032 70.0429399 64.5346097 42.02147 80.7128129 14 64.5346097 14 32.1782032"></polygon>
            <path d="M1.5,24.9724319 L1.5,71.7625951 L42.02147,95.1576766 L82.5429399,71.7625951 L82.5429399,24.9724319 L42.02147,1.57735027 L1.5,24.9724319 Z M83.5429399,24.3950816 L83.5429399,72.3399453 L42.02147,96.3123772 L0.5,72.3399453 L0.5,24.3950816 L42.02147,0.422649731 L83.5429399,24.3950816 Z" id="Polygon-Copy-66" fill="#FFFFFF" fill-rule="nonzero"></path>
            <path d="M46.6435547,46.8164062 C46.6435547,52.4023717 44.482118,55.1953125 40.1591797,55.1953125 C39.4039676,55.1953125 38.8050152,55.130209 38.3623047,55 L38.3623047,53.6035156 C38.8831406,53.7727873 39.4755826,53.8574219 40.1396484,53.8574219 C41.7021562,53.8574219 42.8821575,53.3740283 43.6796875,52.4072266 C44.4772175,51.4404249 44.9117835,49.9576923 44.9833984,47.9589844 L44.8662109,47.9589844 C44.5081362,48.4993517 44.0328806,48.9111314 43.4404297,49.1943359 C42.8479788,49.4775405 42.1806678,49.6191406 41.4384766,49.6191406 C40.1754494,49.6191406 39.1728553,49.2415402 38.4306641,48.4863281 C37.6884729,47.731116 37.3173828,46.6764391 37.3173828,45.3222656 C37.3173828,43.8378832 37.7324177,42.6660199 38.5625,41.8066406 C39.3925823,40.9472613 40.4846937,40.5175781 41.8388672,40.5175781 C42.8089241,40.5175781 43.6568974,40.7665991 44.3828125,41.2646484 C45.1087276,41.7626978 45.6669902,42.488602 46.0576172,43.4423828 C46.4482441,44.3961636 46.6435547,45.5208269 46.6435547,46.8164062 Z M41.8388672,41.9042969 C40.9078729,41.9042969 40.1884791,42.203773 39.6806641,42.8027344 C39.172849,43.4016957 38.9189453,44.2350207 38.9189453,45.3027344 C38.9189453,46.2402391 39.153318,46.9775364 39.6220703,47.5146484 C40.0908227,48.0517605 40.8037062,48.3203125 41.7607422,48.3203125 C42.3531931,48.3203125 42.898435,48.199871 43.3964844,47.9589844 C43.8945337,47.7180978 44.2867824,47.389325 44.5732422,46.9726562 C44.859702,46.5559875 45.0029297,46.1197939 45.0029297,45.6640625 C45.0029297,44.9804653 44.8694675,44.3489612 44.6025391,43.7695312 C44.3356106,43.1901013 43.962893,42.7343767 43.484375,42.4023438 C43.005857,42.0703108 42.4573599,41.9042969 41.8388672,41.9042969 Z" id="9-copy" fill="#8A9A9E"></path>
        </g>
    </g>
</svg>