<?xml version="1.0" encoding="UTF-8"?>
<svg width="84px" height="97px" viewBox="0 0 84 97" version="1.1" xmlns="http://www.w3.org/2000/svg" xmlns:xlink="http://www.w3.org/1999/xlink">
    <!-- Generator: Sketch 43.2 (39069) - http://www.bohemiancoding.com/sketch -->
    <title>element-4</title>
    <desc>Created with Sketch.</desc>
    <defs></defs>
    <g id="Page-1" stroke="none" stroke-width="1" fill="none" fill-rule="evenodd">
        <g id="element-4">
            <polygon id="Polygon-Copy-45" fill="#FFFFFF" points="42.02147 16 70.0429399 32.1782032 70.0429399 64.5346097 42.02147 80.7128129 14 64.5346097 14 32.1782032"></polygon>
            <path d="M1.5,24.9724319 L1.5,71.7625951 L42.02147,95.1576766 L82.5429399,71.7625951 L82.5429399,24.9724319 L42.02147,1.57735027 L1.5,24.9724319 Z M83.5429399,24.3950816 L83.5429399,72.3399453 L42.02147,96.3123772 L0.5,72.3399453 L0.5,24.3950816 L42.02147,0.422649731 L83.5429399,24.3950816 Z" id="Polygon-Copy-65" fill="#FFFFFF" fill-rule="nonzero"></path>
            <path d="M47.3173828,51.71875 L45.1982422,51.71875 L45.1982422,55 L43.6455078,55 L43.6455078,51.71875 L36.7021484,51.71875 L36.7021484,50.3027344 L43.4794922,40.6445312 L45.1982422,40.6445312 L45.1982422,50.2441406 L47.3173828,50.2441406 L47.3173828,51.71875 Z M43.6455078,50.2441406 L43.6455078,45.4980469 C43.6455078,44.5670526 43.6780596,43.5156309 43.7431641,42.34375 L43.6650391,42.34375 C43.3525375,42.9687531 43.0595717,43.4863261 42.7861328,43.8964844 L38.3232422,50.2441406 L43.6455078,50.2441406 Z" id="4-copy" fill="#8A9A9E"></path>
        </g>
    </g>
</svg>