<?xml version="1.0" encoding="UTF-8"?>
<svg width="84px" height="97px" viewBox="0 0 84 97" version="1.1" xmlns="http://www.w3.org/2000/svg" xmlns:xlink="http://www.w3.org/1999/xlink">
    <!-- Generator: Sketch 43.2 (39069) - http://www.bohemiancoding.com/sketch -->
    <title>element-5</title>
    <desc>Created with Sketch.</desc>
    <defs></defs>
    <g id="Page-1" stroke="none" stroke-width="1" fill="none" fill-rule="evenodd">
        <g id="element-5">
            <polygon id="Polygon-Copy-47" fill="#FFFFFF" points="42.02147 16 70.0429399 32.1782032 70.0429399 64.5346097 42.02147 80.7128129 14 64.5346097 14 32.1782032"></polygon>
            <path d="M1.5,24.9724319 L1.5,71.7625951 L42.02147,95.1576766 L82.5429399,71.7625951 L82.5429399,24.9724319 L42.02147,1.57735027 L1.5,24.9724319 Z M83.5429399,24.3950816 L83.5429399,72.3399453 L42.02147,96.3123772 L0.5,72.3399453 L0.5,24.3950816 L42.02147,0.422649731 L83.5429399,24.3950816 Z" id="Polygon-Copy-67" fill="#FFFFFF" fill-rule="nonzero"></path>
            <path d="M41.7216797,46.2792969 C43.2255935,46.2792969 44.4088499,46.6520145 45.2714844,47.3974609 C46.1341189,48.1429074 46.5654297,49.163405 46.5654297,50.4589844 C46.5654297,51.9368563 46.0950568,53.0956989 45.1542969,53.9355469 C44.213537,54.7753948 42.9163494,55.1953125 41.2626953,55.1953125 C39.6546144,55.1953125 38.4274131,54.9381536 37.5810547,54.4238281 L37.5810547,52.8613281 C38.0367861,53.1542983 38.6031867,53.3837882 39.2802734,53.5498047 C39.9573602,53.7158211 40.6246712,53.7988281 41.2822266,53.7988281 C42.4280656,53.7988281 43.3183562,53.5286485 43.953125,52.9882812 C44.5878938,52.447914 44.9052734,51.6666718 44.9052734,50.6445312 C44.9052734,48.6523338 43.6845825,47.65625 41.2431641,47.65625 C40.6246714,47.65625 39.7978567,47.7506501 38.7626953,47.9394531 L37.9228516,47.4023438 L38.4599609,40.7226562 L45.5595703,40.7226562 L45.5595703,42.2167969 L39.8466797,42.2167969 L39.4853516,46.5039062 C40.2340532,46.3541659 40.9794885,46.2792969 41.7216797,46.2792969 Z" id="5-copy" fill="#8A9A9E"></path>
        </g>
    </g>
</svg>