<?xml version="1.0" encoding="UTF-8"?>
<svg width="84px" height="97px" viewBox="0 0 84 97" version="1.1" xmlns="http://www.w3.org/2000/svg" xmlns:xlink="http://www.w3.org/1999/xlink">
    <!-- Generator: Sketch 43.2 (39069) - http://www.bohemiancoding.com/sketch -->
    <title>element-16</title>
    <desc>Created with Sketch.</desc>
    <defs></defs>
    <g id="Page-1" stroke="none" stroke-width="1" fill="none" fill-rule="evenodd">
        <g id="element-16">
            <polygon id="Polygon-Copy-50" fill="#FFFFFF" points="42.02147 16 70.0429399 32.1782032 70.0429399 64.5346097 42.02147 80.7128129 14 64.5346097 14 32.1782032"></polygon>
            <path d="M42.02147,1.57735027 L1.5,24.9724319 L1.5,71.7625951 L42.02147,95.1576766 L82.5429399,71.7625951 L82.5429399,24.9724319 L42.02147,1.57735027 Z M83.5429399,24.3950816 L83.5429399,72.3399453 L42.02147,96.3123772 L0.5,72.3399453 L0.5,24.3950816 L42.02147,0.422649731 L83.5429399,24.3950816 Z" id="Polygon-Copy-70" fill="#FFFFFF" fill-rule="nonzero"></path>
            <path d="M37.546875,55 L35.9648438,55 L35.9648438,44.8242188 C35.9648438,43.9778604 35.9908852,43.1770871 36.0429688,42.421875 C35.9062493,42.5585944 35.7532561,42.7018222 35.5839844,42.8515625 C35.4147127,43.0013028 34.6399809,43.6360621 33.2597656,44.7558594 L32.4003906,43.6425781 L36.1796875,40.7226562 L37.546875,40.7226562 L37.546875,55 Z M43.1425781,48.8964844 C43.1425781,46.0904808 43.6878201,43.99252 44.7783203,42.6025391 C45.8688206,41.2125582 47.4817602,40.5175781 49.6171875,40.5175781 C50.3528683,40.5175781 50.9322896,40.5794265 51.3554688,40.703125 L51.3554688,42.0996094 C50.8541642,41.9368481 50.2812532,41.8554688 49.6367188,41.8554688 C48.1067632,41.8554688 46.9381551,42.332352 46.1308594,43.2861328 C45.3235637,44.2399136 44.8808598,45.7389221 44.8027344,47.7832031 L44.9199219,47.7832031 C45.6360713,46.6634059 46.7688725,46.1035156 48.3183594,46.1035156 C49.6009179,46.1035156 50.61165,46.4908815 51.3505859,47.265625 C52.0895219,48.0403685 52.4589844,49.0917902 52.4589844,50.4199219 C52.4589844,51.9043043 52.053715,53.0712848 51.2431641,53.9208984 C50.4326131,54.7705121 49.3372465,55.1953125 47.9570312,55.1953125 C46.4791593,55.1953125 45.307296,54.640305 44.4414062,53.5302734 C43.5755165,52.4202418 43.1425781,50.8756609 43.1425781,48.8964844 Z M47.9375,53.8183594 C48.8619838,53.8183594 49.57975,53.5270211 50.0908203,52.9443359 C50.6018906,52.3616507 50.8574219,51.5201878 50.8574219,50.4199219 C50.8574219,49.4759067 50.619794,48.7337267 50.1445312,48.1933594 C49.6692685,47.6529921 48.9596401,47.3828125 48.015625,47.3828125 C47.4296846,47.3828125 46.8925806,47.503254 46.4042969,47.7441406 C45.9160132,47.9850272 45.5270197,48.3170552 45.2373047,48.7402344 C44.9475897,49.1634136 44.8027344,49.6028623 44.8027344,50.0585938 C44.8027344,50.72917 44.9329414,51.3541638 45.1933594,51.9335938 C45.4537773,52.5130237 45.8232398,52.9720035 46.3017578,53.3105469 C46.7802758,53.6490902 47.3255178,53.8183594 47.9375,53.8183594 Z" id="16-copy" fill="#8A9A9E"></path>
        </g>
    </g>
</svg>