<?xml version="1.0" encoding="UTF-8"?>
<svg width="304px" height="65px" viewBox="0 0 304 65" version="1.1" xmlns="http://www.w3.org/2000/svg" xmlns:xlink="http://www.w3.org/1999/xlink">
    <!-- Generator: Sketch 43.2 (39069) - http://www.bohemiancoding.com/sketch -->
    <title>airship-logo</title>
    <desc>Created with Sketch.</desc>
    <defs></defs>
    <g id="Page-1" stroke="none" stroke-width="1" fill="none" fill-rule="evenodd">
        <g id="airship-logo">
            <g id="dark" transform="translate(27.000000, 0.000000)" fill-rule="nonzero" fill="#67777B">
                <path d="M132.836713,15.6325 C129.740238,7.5075 121.216781,0.8775 119.27741,0.8775 L118.951465,0.8775 C116.995796,0.8775 108.488637,7.5075 105.392161,15.6325 C104.561002,17.82625 108.651609,48.555 109.613146,53.08875 C109.655244,53.6266218 110.070483,54.0610202 110.607278,54.12875 L115.49645,54.12875 C115.333478,52.6175 115.219397,51.0575 115.105316,49.54625 C114.690675,45.2257023 114.505714,40.8862968 114.55121,36.54625 C115.382369,34.515 117.533605,31.80125 119.130735,31.80125 L119.130735,31.80125 C120.760459,31.80125 122.862803,34.515 123.710259,36.51375 C124.068798,37.39125 123.384314,46.605 122.634641,54.06375 L127.523813,54.06375 C128.060608,53.9960202 128.475848,53.5616218 128.517945,53.02375 C129.544671,48.5225 133.651575,17.8425 132.820416,15.64875 L132.836713,15.6325 Z M123.954718,23.5625 C123.954718,24.03375 123.759151,24.0825 123.514692,23.80625 C122.433855,22.2360261 120.915476,21.0158054 119.147032,20.29625 L119.147032,20.29625 C117.389449,21.0340506 115.875783,22.2504841 114.779372,23.80625 C114.534913,24.13125 114.388238,24.0825 114.339346,23.5625 C114.339346,22.27875 114.225265,18.98 114.339346,18.76875 C115.447558,15.51875 118.511439,12.78875 119.228518,12.78875 L119.228518,12.78875 C119.945597,12.78875 122.960586,15.45375 124.11769,18.76875 C124.215701,20.3651724 124.215701,21.9660776 124.11769,23.5625 L123.954718,23.5625 Z" id="Shape"></path>
                <path d="M137.253265,62.4325 C138.882989,60.8075 142.77803,45.87375 142.826921,41.73 C142.716534,40.4142539 142.138595,39.1810491 141.197197,38.2525 C138.861566,36.0836846 136.311614,34.1563472 133.586386,32.5 C132.836713,39.8775 130.881045,50.97625 130.489911,53.44625 C131.451448,55.965 135.183516,61.83125 137.253265,62.4975 L137.253265,62.4325 Z" id="Shape-3"></path>
                <path d="M236.258998,7.36125 C234.906327,7.36125 159.205648,7.2475 153.990531,7.36125 C151.612404,7.36007463 149.322782,8.26048864 147.585715,9.88 C145.793019,11.505 134.384951,25.675 134.384951,25.805 C134.384951,26.715 134.189384,28.2425 134.140493,29.055 C134.091601,29.8675 134.254573,30.1275 135.020544,30.68 C135.379083,30.95625 137.041401,32.02875 137.644399,32.51625 C140.947777,28.8988577 144.469068,25.4854538 148.188713,22.295 C150.731083,20.1825 152.686752,19.77625 158.048544,19.77625 L223.954582,19.77625 C227.107095,20.1239788 230.23048,18.9098147 232.315066,16.52625 C234.626478,14.3297446 236.539693,11.7513672 237.970208,8.905 C238.410234,7.995 238.084289,7.28 236.340484,7.28 L236.258998,7.36125 Z" id="Shape-5"></path>
                <path d="M204.267516,22.1325 C202.914845,22.1325 160.704994,21.97 155.701741,21.97 C152.902907,21.7138038 150.124533,22.6392088 148.042038,24.52125 C146.249342,26.14625 138.8178,33.42625 138.899287,33.49125 C140.75464,34.9412314 142.458216,36.5745368 143.984025,38.36625 C145.092238,37.4075 146.086369,36.64375 147.602013,35.49 C150.225868,33.45875 153.175669,33.7025 158.504866,33.7025 L192.5498,33.865 C195.702314,34.2127288 198.825698,32.9985647 200.910285,30.615 C203.016612,28.6705348 204.731344,26.3430528 205.962429,23.7575 C206.402454,22.79875 206.07651,22.1325 204.218624,22.1325 L204.267516,22.1325 Z" id="Shape-7"></path>
                <path d="M173.319057,35.92875 C171.966386,35.92875 158.081138,35.76625 153.077885,35.76625 C150.862328,35.5785162 148.672491,36.3477673 147.064204,37.87875 C146.248272,38.5091443 145.485209,39.2047791 144.78259,39.95875 C145.304102,41.795 144.78259,44.6225 144.228484,47.53125 C145.222616,47.53125 159.498998,47.69375 161.73172,47.69375 C164.884233,48.0414788 168.007618,46.8273147 170.092204,44.44375 C172.198532,42.4992848 173.913264,40.1718028 175.144348,37.58625 C175.584374,36.595 175.258429,35.96125 173.400544,35.96125 L173.319057,35.92875 Z" id="Shape-9"></path>
                <path d="M122.210913,37.29375 C121.702946,35.7023254 120.623469,34.3539966 119.179626,33.5075 L119.179626,33.5075 C117.735784,34.3539966 116.656307,35.7023254 116.14834,37.29375 C115.985367,37.81375 117.060985,59.28 118.055117,62.8225 C118.250684,63.505 118.886276,64.7725 119.212221,64.7725 C119.764331,64.236163 120.163649,63.5632165 120.369325,62.8225 C121.200484,59.94625 122.439074,37.81375 122.276102,37.29375 L122.210913,37.29375 Z" id="Shape-10"></path>
                <path d="M33.9613588,22.1325 C35.3140297,22.1325 77.5238811,21.97 82.5271338,21.97 C85.3040612,21.7323772 88.0550775,22.6565352 90.1216476,24.52125 C91.9143439,26.14625 99.3458854,33.42625 99.2643992,33.49125 C97.4090458,34.9412314 95.7054702,36.5745368 94.1796603,38.36625 C93.071448,37.4075 92.0773163,36.64375 90.561673,35.49 C87.9378174,33.45875 84.988017,33.7025 79.6588195,33.7025 L45.6138854,33.865 C42.4613719,34.2127288 39.3379874,32.9985647 37.2534013,30.615 C35.1470735,28.6705348 33.4323414,26.3430528 32.2012569,23.7575 C31.8101231,22.79875 32.0871762,22.1325 33.9450616,22.1325 L33.9613588,22.1325 Z" id="Shape-15"></path>
                <path d="M64.9261146,35.92875 C66.2787856,35.92875 80.164034,35.76625 85.1672866,35.76625 C87.3828439,35.5785162 89.572681,36.3477673 91.1809682,37.87875 C92.019443,38.5063437 92.8043895,39.2020514 93.5277707,39.95875 C93.006259,41.795 93.5277707,44.6225 94.0818769,47.53125 C93.0877452,47.53125 78.8113631,47.69375 76.5786412,47.69375 C73.4261278,48.0414788 70.3027433,46.8273147 68.2181571,44.44375 C66.1602876,42.4925925 64.4904436,40.1715112 63.2963907,37.6025 C62.8563652,36.61125 63.18231,35.9775 65.0401953,35.9775 L64.9261146,35.92875 Z" id="Shape-17"></path>
                <path d="M2.03506582,7.36125 C3.38773673,7.36125 79.0884161,7.2475 84.3035329,7.36125 C86.6816597,7.36007463 88.9712817,8.26048864 90.7083482,9.88 C92.5010446,11.505 103.909113,25.675 103.909113,25.805 C103.909113,26.715 104.104679,28.2425 104.153571,29.055 C104.202463,29.8675 104.03949,30.1275 103.27352,30.68 C102.914981,30.95625 101.252662,32.02875 100.649665,32.51625 C97.346287,28.8988577 93.8249953,25.4854538 90.1053503,22.295 C87.5629809,20.1825 85.6073121,19.77625 80.2455202,19.77625 L14.4046709,19.77625 C11.2521575,20.1239788 8.12877298,18.9098147 6.04418684,16.52625 C3.73277483,14.3297446 1.81955973,11.7513672 0.389044586,8.905 C-0.0509808917,7.995 0.226072187,7.28 2.01876858,7.28 L2.03506582,7.36125 Z" id="Shape-18"></path>
            </g>
            <g id="light">
                <path d="M128.040798,62.4325 C126.411074,60.8075 122.516034,45.87375 122.467142,41.73 C122.577529,40.4142539 123.155469,39.1810491 124.096866,38.2525 C126.432498,36.0836846 128.98245,34.1563472 131.707677,32.5 C132.45735,39.8775 134.413019,50.97625 134.804153,53.44625 C133.842616,55.965 130.077953,61.83125 128.040798,62.4975 L128.040798,62.4325 Z" id="Shape-2" fill="#8A9A9E" fill-rule="nonzero"></path>
                <path d="M290.345011,7.36125 L267.528875,7.36125 C267.251822,10.7575 261.727057,17.72875 258.141665,19.80875 L277.991703,19.80875 C281.144216,20.1564788 284.267601,18.9423147 286.352187,16.55875 C288.663599,14.3622446 290.576814,11.7838672 292.007329,8.9375 C292.447355,8.0275 292.12141,7.3125 290.377605,7.3125 L290.345011,7.36125 Z" id="Shape-4" fill="#8A9A9E" fill-rule="nonzero"></path>
                <path d="M258.353529,22.1325 L235.537393,22.1325 C235.26034,25.52875 230.371168,31.785 226.75318,33.865 L246.603219,33.865 C249.755732,34.2127288 252.879117,32.9985647 254.963703,30.615 C257.070031,28.6705348 258.784763,26.3430528 260.015847,23.7575 C260.488467,22.79875 260.17882,22.1325 258.386123,22.1325 L258.353529,22.1325 Z" id="Shape-6" fill="#8A9A9E" fill-rule="nonzero"></path>
                <path d="M227.421367,35.92875 L204.605231,35.92875 C204.328178,39.325 199.439006,45.58125 195.821019,47.66125 L215.785138,47.66125 C218.937651,48.0089788 222.061036,46.7948147 224.145622,44.41125 C226.25195,42.4667848 227.966682,40.1393028 229.197766,37.55375 C229.670386,36.595 229.360739,35.92875 227.568042,35.92875 L227.421367,35.92875 Z" id="Shape-8" fill="#8A9A9E" fill-rule="nonzero"></path>
                <path d="M146.147032,20.29625 L146.147032,20.29625 C144.378693,21.0382647 142.850297,22.2529385 141.73048,23.80625 C141.486021,24.13125 141.339346,24.0825 141.290454,23.5625 C141.290454,22.27875 141.176374,18.98 141.290454,18.76875 C142.398667,15.51875 145.462548,12.78875 146.179626,12.78875 L146.179626,12.78875 L146.179626,0.91 L146.016654,0.91 C144.060985,0.91 135.553826,7.54 132.45735,15.665 C131.626191,17.85875 135.716798,48.5875 136.678335,53.12125 C136.720433,53.6591218 137.135672,54.0935202 137.672467,54.16125 L142.561639,54.16125 C142.398667,52.65 142.284586,51.09 142.170505,49.57875 C141.755864,45.2582023 141.570903,40.9187968 141.616399,36.57875 C142.447558,34.5475 144.598794,31.83375 146.195924,31.83375 L146.195924,31.83375 L146.195924,20.29625 L146.147032,20.29625 Z" id="Shape-11" fill="#8A9A9E" fill-rule="nonzero"></path>
                <path d="M146.114437,33.54 C144.661152,34.3983033 143.580503,35.765475 143.083151,37.375 C142.920178,37.895 143.995796,59.36125 144.989928,62.90375 C145.185495,63.58625 145.821087,64.85375 146.147032,64.85375 L146.147032,64.85375 L146.147032,33.5725 L146.114437,33.54 Z" id="Shape-12" fill="#8A9A9E" fill-rule="nonzero"></path>
                <path d="M1.94905308,7.36125 L24.765189,7.36125 C25.042242,10.7575 30.5670064,17.72875 34.1523992,19.80875 L14.237172,19.80875 C11.0846585,20.1564788 7.96127404,18.9423147 5.8766879,16.55875 C3.57411897,14.3706746 1.66663228,11.8035816 0.237842887,8.97 C-0.23477707,8.06 0.0748704883,7.345 1.86756688,7.345 L1.94905308,7.36125 Z" id="Shape-13" fill="#8A9A9E" fill-rule="nonzero"></path>
                <path d="M33.8916433,22.1325 L56.7077792,22.1325 C56.9848323,25.52875 61.8740042,31.785 65.4919915,33.865 L45.5930616,33.865 C42.4405481,34.2127288 39.3171636,32.9985647 37.2325775,30.615 C35.1262497,28.6705348 33.4115176,26.3430528 32.1804331,23.7575 C31.7404076,22.79875 32.0174607,22.1325 33.8101571,22.1325 L33.8916433,22.1325 Z" id="Shape-14" fill="#8A9A9E" fill-rule="nonzero"></path>
                <path d="M64.8401019,35.92875 L87.6562378,35.92875 C87.9332909,39.325 92.8224628,45.58125 96.4404501,47.66125 L76.5415202,47.66125 C73.3890067,48.0089788 70.2656222,46.7948147 68.1810361,44.41125 C66.0747083,42.4667848 64.3599762,40.1393028 63.1288917,37.55375 C62.6888662,36.595 63.014811,35.92875 64.7586157,35.92875 L64.8401019,35.92875 Z" id="Shape-16" fill="#8A9A9E" fill-rule="nonzero"></path>
                <path d="M303.050313,10.2698361 C303.050313,9.73056788 302.96326,9.23492438 302.789149,8.78289072 C302.615039,8.33085707 302.373663,7.94227256 302.065013,7.61712554 C301.756364,7.29197853 301.396278,7.04019163 300.984745,6.86175729 C300.573212,6.68332295 300.130029,6.59410712 299.655183,6.59410712 C299.172423,6.59410712 298.723305,6.68332295 298.307815,6.86175729 C297.892325,7.04019163 297.530261,7.29197853 297.221611,7.61712554 C296.912961,7.94227256 296.671585,8.33085707 296.497475,8.78289072 C296.323365,9.23492438 296.236311,9.73056788 296.236311,10.2698361 C296.236311,10.7773827 296.315451,11.2532004 296.473733,11.6973037 C296.632015,12.1414069 296.859541,12.5299914 297.15632,12.8630689 C297.453099,13.1961463 297.811206,13.4598286 298.230653,13.6541238 C298.6501,13.848419 299.124939,13.9455651 299.655183,13.9455651 C300.130029,13.9455651 300.573212,13.8563493 300.984745,13.6779149 C301.396278,13.4994806 301.756364,13.2476937 302.065013,12.9225467 C302.373663,12.5973997 302.615039,12.2107977 302.789149,11.7627293 C302.96326,11.3146608 303.050313,10.8170347 303.050313,10.2698361 Z M304,10.2698361 C304,10.935991 303.883269,11.5426586 303.649803,12.0898573 C303.416337,12.6370559 303.099778,13.1049434 302.700116,13.4935337 C302.300454,13.882124 301.837487,14.1834753 301.311199,14.3975965 C300.784912,14.6117177 300.232912,14.7187767 299.655183,14.7187767 C299.014141,14.7187767 298.426529,14.60577 297.892327,14.3797531 C297.358126,14.1537363 296.899115,13.8424722 296.515281,13.4459514 C296.131448,13.0494307 295.830717,12.5795606 295.613079,12.0363272 C295.395441,11.4930938 295.286624,10.9042693 295.286624,10.2698361 C295.286624,9.60368124 295.403355,8.99701359 295.636821,8.44981496 C295.870287,7.90261632 296.186846,7.43472885 296.586508,7.04613852 C296.98617,6.65754818 297.451116,6.35619693 297.98136,6.14207572 C298.511605,5.92795452 299.06954,5.82089552 299.655183,5.82089552 C300.232912,5.82089552 300.784912,5.92795452 301.311199,6.14207572 C301.837487,6.35619693 302.300454,6.65754818 302.700116,7.04613852 C303.099778,7.43472885 303.416337,7.90261632 303.649803,8.44981496 C303.883269,8.99701359 304,9.60368124 304,10.2698361 Z M299.678925,10.0200293 C299.829293,10.0200293 299.973723,10.0140816 300.11222,10.0021859 C300.250717,9.99029031 300.371405,9.95658656 300.474288,9.90107365 C300.577171,9.84556075 300.660268,9.76824036 300.723581,9.66911017 C300.786894,9.56997998 300.818549,9.42921723 300.818549,9.24681768 C300.818549,9.0961398 300.784915,8.97718536 300.717645,8.88995079 C300.650375,8.80271623 300.5653,8.73530871 300.462417,8.68772622 C300.359534,8.64014373 300.244781,8.61040512 300.118155,8.5985095 C299.99153,8.58661387 299.868863,8.58066615 299.750152,8.58066615 L298.776723,8.58066615 L298.776723,10.0200293 L299.678925,10.0200293 Z M298.776723,12.8154866 L297.969489,12.8154866 L297.969489,7.89072349 L299.833249,7.89072349 C300.426807,7.89072349 300.873946,8.00174764 301.174682,8.22379926 C301.475418,8.44585088 301.625783,8.80667935 301.625783,9.3062955 C301.625783,9.75039874 301.503117,10.0755409 301.25778,10.2817317 C301.012443,10.4879225 300.707754,10.610842 300.343706,10.6504941 L301.720752,12.8154866 L300.806678,12.8154866 L299.536472,10.7099719 L298.776723,10.7099719 L298.776723,12.8154866 Z" id="®" fill="#67777B"></path>
            </g>
        </g>
    </g>
</svg>