<?xml version="1.0" encoding="UTF-8"?>
<svg width="84px" height="97px" viewBox="0 0 84 97" version="1.1" xmlns="http://www.w3.org/2000/svg" xmlns:xlink="http://www.w3.org/1999/xlink">
    <!-- Generator: Sketch 43.2 (39069) - http://www.bohemiancoding.com/sketch -->
    <title>element-15</title>
    <desc>Created with Sketch.</desc>
    <defs></defs>
    <g id="Page-1" stroke="none" stroke-width="1" fill="none" fill-rule="evenodd">
        <g id="element-15">
            <polygon id="Polygon-Copy-57" fill="#FFFFFF" points="42.02147 16 70.0429399 32.1782032 70.0429399 64.5346097 42.02147 80.7128129 14 64.5346097 14 32.1782032"></polygon>
            <path d="M1.5,24.9724319 L1.5,71.7625951 L42.02147,95.1576766 L82.5429399,71.7625951 L82.5429399,24.9724319 L42.02147,1.57735027 L1.5,24.9724319 Z M83.5429399,24.3950816 L83.5429399,72.3399453 L42.02147,96.3123772 L0.5,72.3399453 L0.5,24.3950816 L42.02147,0.422649731 L83.5429399,24.3950816 Z" id="Polygon-Copy-77" fill="#FFFFFF" fill-rule="nonzero"></path>
            <path d="M37.546875,55 L35.9648438,55 L35.9648438,44.8242188 C35.9648438,43.9778604 35.9908852,43.1770871 36.0429688,42.421875 C35.9062493,42.5585944 35.7532561,42.7018222 35.5839844,42.8515625 C35.4147127,43.0013028 34.6399809,43.6360621 33.2597656,44.7558594 L32.4003906,43.6425781 L36.1796875,40.7226562 L37.546875,40.7226562 L37.546875,55 Z M47.4394531,46.2792969 C48.9433669,46.2792969 50.1266233,46.6520145 50.9892578,47.3974609 C51.8518923,48.1429074 52.2832031,49.163405 52.2832031,50.4589844 C52.2832031,51.9368563 51.8128302,53.0956989 50.8720703,53.9355469 C49.9313104,54.7753948 48.6341229,55.1953125 46.9804688,55.1953125 C45.3723878,55.1953125 44.1451865,54.9381536 43.2988281,54.4238281 L43.2988281,52.8613281 C43.7545596,53.1542983 44.3209602,53.3837882 44.9980469,53.5498047 C45.6751336,53.7158211 46.3424446,53.7988281 47,53.7988281 C48.1458391,53.7988281 49.0361296,53.5286485 49.6708984,52.9882812 C50.3056672,52.447914 50.6230469,51.6666718 50.6230469,50.6445312 C50.6230469,48.6523338 49.402356,47.65625 46.9609375,47.65625 C46.3424448,47.65625 45.5156302,47.7506501 44.4804688,47.9394531 L43.640625,47.4023438 L44.1777344,40.7226562 L51.2773438,40.7226562 L51.2773438,42.2167969 L45.5644531,42.2167969 L45.203125,46.5039062 C45.9518267,46.3541659 46.6972619,46.2792969 47.4394531,46.2792969 Z" id="15-copy" fill="#8A9A9E"></path>
        </g>
    </g>
</svg>