<?xml version="1.0" encoding="UTF-8"?>
<svg width="84px" height="97px" viewBox="0 0 84 97" version="1.1" xmlns="http://www.w3.org/2000/svg" xmlns:xlink="http://www.w3.org/1999/xlink">
    <!-- Generator: Sketch 43.2 (39069) - http://www.bohemiancoding.com/sketch -->
    <title>element-20</title>
    <desc>Created with Sketch.</desc>
    <defs></defs>
    <g id="Page-1" stroke="none" stroke-width="1" fill="none" fill-rule="evenodd">
        <g id="element-20">
            <polygon id="Polygon-Copy-58" fill="#FFFFFF" points="42.02147 16 70.0429399 32.1782032 70.0429399 64.5346097 42.02147 80.7128129 14 64.5346097 14 32.1782032"></polygon>
            <path d="M1.5,24.9724319 L1.5,71.7625951 L42.02147,95.1576766 L82.5429399,71.7625951 L82.5429399,24.9724319 L42.02147,1.57735027 L1.5,24.9724319 Z M83.5429399,24.3950816 L83.5429399,72.3399453 L42.02147,96.3123772 L0.5,72.3399453 L0.5,24.3950816 L42.02147,0.422649731 L83.5429399,24.3950816 Z" id="Polygon-Copy-78" fill="#FFFFFF" fill-rule="nonzero"></path>
            <path d="M40.9257812,55 L31.5410156,55 L31.5410156,53.6035156 L35.3007812,49.8242188 C36.4466203,48.6653588 37.2018211,47.8385441 37.5664062,47.34375 C37.9309914,46.8489559 38.2044262,46.3671898 38.3867188,45.8984375 C38.5690113,45.4296852 38.6601562,44.9251329 38.6601562,44.3847656 C38.6601562,43.6230431 38.4290388,43.019208 37.9667969,42.5732422 C37.504555,42.1272764 36.8632854,41.9042969 36.0429688,41.9042969 C35.4505179,41.9042969 34.889,42.0019521 34.3583984,42.1972656 C33.8277968,42.3925791 33.2369824,42.7473933 32.5859375,43.2617188 L31.7265625,42.1582031 C33.0416732,41.0644477 34.4739506,40.5175781 36.0234375,40.5175781 C37.36459,40.5175781 38.4160118,40.8609992 39.1777344,41.5478516 C39.9394569,42.234704 40.3203125,43.1575463 40.3203125,44.3164062 C40.3203125,45.2213587 40.0664088,46.116532 39.5585938,47.0019531 C39.0507787,47.8873742 38.1002674,49.0071547 36.7070312,50.3613281 L33.5820312,53.4179688 L33.5820312,53.4960938 L40.9257812,53.4960938 L40.9257812,55 Z M52.4394531,47.8417969 C52.4394531,50.3092571 52.0504596,52.1516866 51.2724609,53.3691406 C50.4944623,54.5865946 49.3046955,55.1953125 47.703125,55.1953125 C46.166659,55.1953125 44.9980509,54.5719463 44.1972656,53.3251953 C43.3964804,52.0784443 42.9960938,50.2506631 42.9960938,47.8417969 C42.9960938,45.3548053 43.3834597,43.5091206 44.1582031,42.3046875 C44.9329466,41.1002544 46.1145754,40.4980469 47.703125,40.4980469 C49.2526119,40.4980469 50.429358,41.1262958 51.2333984,42.3828125 C52.0374389,43.6393292 52.4394531,45.4589725 52.4394531,47.8417969 Z M44.6367188,47.8417969 C44.6367188,49.9186302 44.8808569,51.4306593 45.3691406,52.3779297 C45.8574243,53.3252 46.6354113,53.7988281 47.703125,53.7988281 C48.7838596,53.7988281 49.5667293,53.3186897 50.0517578,52.3583984 C50.5367863,51.3981072 50.7792969,49.8925884 50.7792969,47.8417969 C50.7792969,45.7910054 50.5367863,44.2887417 50.0517578,43.3349609 C49.5667293,42.3811801 48.7838596,41.9042969 47.703125,41.9042969 C46.6354113,41.9042969 45.8574243,42.3746698 45.3691406,43.3154297 C44.8808569,44.2561896 44.6367188,45.7649636 44.6367188,47.8417969 Z" id="20-copy" fill="#8A9A9E"></path>
        </g>
    </g>
</svg>