<?xml version="1.0" encoding="UTF-8"?>
<svg width="84px" height="97px" viewBox="0 0 84 97" version="1.1" xmlns="http://www.w3.org/2000/svg" xmlns:xlink="http://www.w3.org/1999/xlink">
    <!-- Generator: Sketch 43.2 (39069) - http://www.bohemiancoding.com/sketch -->
    <title>element-6</title>
    <desc>Created with Sketch.</desc>
    <defs></defs>
    <g id="Page-1" stroke="none" stroke-width="1" fill="none" fill-rule="evenodd">
        <g id="element-6">
            <polygon id="Polygon-Copy-40" fill="#FFFFFF" points="42.02147 16 70.0429399 32.1782032 70.0429399 64.5346097 42.02147 80.7128129 14 64.5346097 14 32.1782032"></polygon>
            <path d="M1.5,24.9724319 L1.5,71.7625951 L42.02147,95.1576766 L82.5429399,71.7625951 L82.5429399,24.9724319 L42.02147,1.57735027 L1.5,24.9724319 Z M83.5429399,24.3950816 L83.5429399,72.3399453 L42.02147,96.3123772 L0.5,72.3399453 L0.5,24.3950816 L42.02147,0.422649731 L83.5429399,24.3950816 Z" id="Polygon-Copy-60" fill="#FFFFFF" fill-rule="nonzero"></path>
            <path d="M37.4248047,48.8964844 C37.4248047,46.0904808 37.9700466,43.99252 39.0605469,42.6025391 C40.1510471,41.2125582 41.7639867,40.5175781 43.8994141,40.5175781 C44.6350948,40.5175781 45.2145161,40.5794265 45.6376953,40.703125 L45.6376953,42.0996094 C45.1363907,41.9368481 44.5634798,41.8554688 43.9189453,41.8554688 C42.3889897,41.8554688 41.2203816,42.332352 40.4130859,43.2861328 C39.6057902,44.2399136 39.1630863,45.7389221 39.0849609,47.7832031 L39.2021484,47.7832031 C39.9182979,46.6634059 41.051099,46.1035156 42.6005859,46.1035156 C43.8831444,46.1035156 44.8938765,46.4908815 45.6328125,47.265625 C46.3717485,48.0403685 46.7412109,49.0917902 46.7412109,50.4199219 C46.7412109,51.9043043 46.3359416,53.0712848 45.5253906,53.9208984 C44.7148397,54.7705121 43.619473,55.1953125 42.2392578,55.1953125 C40.7613858,55.1953125 39.5895226,54.640305 38.7236328,53.5302734 C37.8577431,52.4202418 37.4248047,50.8756609 37.4248047,48.8964844 Z M42.2197266,53.8183594 C43.1442104,53.8183594 43.8619766,53.5270211 44.3730469,52.9443359 C44.8841171,52.3616507 45.1396484,51.5201878 45.1396484,50.4199219 C45.1396484,49.4759067 44.9020206,48.7337267 44.4267578,48.1933594 C43.951495,47.6529921 43.2418667,47.3828125 42.2978516,47.3828125 C41.7119111,47.3828125 41.1748071,47.503254 40.6865234,47.7441406 C40.1982397,47.9850272 39.8092462,48.3170552 39.5195312,48.7402344 C39.2298163,49.1634136 39.0849609,49.6028623 39.0849609,50.0585938 C39.0849609,50.72917 39.215168,51.3541638 39.4755859,51.9335938 C39.7360039,52.5130237 40.1054664,52.9720035 40.5839844,53.3105469 C41.0625024,53.6490902 41.6077443,53.8183594 42.2197266,53.8183594 Z" id="6-copy" fill="#8A9A9E"></path>
        </g>
    </g>
</svg>