<?xml version="1.0" encoding="UTF-8"?>
<svg width="84px" height="97px" viewBox="0 0 84 97" version="1.1" xmlns="http://www.w3.org/2000/svg" xmlns:xlink="http://www.w3.org/1999/xlink">
    <!-- Generator: Sketch 43.2 (39069) - http://www.bohemiancoding.com/sketch -->
    <title>element-2</title>
    <desc>Created with Sketch.</desc>
    <defs></defs>
    <g id="Page-1" stroke="none" stroke-width="1" fill="none" fill-rule="evenodd">
        <g id="element-2">
            <polygon id="Polygon-Copy-43" fill="#FFFFFF" points="42.02147 16 70.0429399 32.1782032 70.0429399 64.5346097 42.02147 80.7128129 14 64.5346097 14 32.1782032"></polygon>
            <path d="M1.5,24.9724319 L1.5,71.7625951 L42.02147,95.1576766 L82.5429399,71.7625951 L82.5429399,24.9724319 L42.02147,1.57735027 L1.5,24.9724319 Z M83.5429399,24.3950816 L83.5429399,72.3399453 L42.02147,96.3123772 L0.5,72.3399453 L0.5,24.3950816 L42.02147,0.422649731 L83.5429399,24.3950816 Z" id="Polygon-Copy-63" fill="#FFFFFF" fill-rule="nonzero"></path>
            <path d="M46.6435547,55 L37.2587891,55 L37.2587891,53.6035156 L41.0185547,49.8242188 C42.1643938,48.6653588 42.9195945,47.8385441 43.2841797,47.34375 C43.6487648,46.8489559 43.9221996,46.3671898 44.1044922,45.8984375 C44.2867848,45.4296852 44.3779297,44.9251329 44.3779297,44.3847656 C44.3779297,43.6230431 44.1468122,43.019208 43.6845703,42.5732422 C43.2223284,42.1272764 42.5810588,41.9042969 41.7607422,41.9042969 C41.1682913,41.9042969 40.6067735,42.0019521 40.0761719,42.1972656 C39.5455703,42.3925791 38.9547559,42.7473933 38.3037109,43.2617188 L37.4443359,42.1582031 C38.7594467,41.0644477 40.191724,40.5175781 41.7412109,40.5175781 C43.0823635,40.5175781 44.1337853,40.8609992 44.8955078,41.5478516 C45.6572304,42.234704 46.0380859,43.1575463 46.0380859,44.3164062 C46.0380859,45.2213587 45.7841822,46.116532 45.2763672,47.0019531 C44.7685521,47.8873742 43.8180408,49.0071547 42.4248047,50.3613281 L39.2998047,53.4179688 L39.2998047,53.4960938 L46.6435547,53.4960938 L46.6435547,55 Z" id="2-copy" fill="#8A9A9E"></path>
        </g>
    </g>
</svg>