<?xml version="1.0" encoding="UTF-8"?>
<svg width="84px" height="97px" viewBox="0 0 84 97" version="1.1" xmlns="http://www.w3.org/2000/svg" xmlns:xlink="http://www.w3.org/1999/xlink">
    <!-- Generator: Sketch 43.2 (39069) - http://www.bohemiancoding.com/sketch -->
    <title>element-19</title>
    <desc>Created with Sketch.</desc>
    <defs></defs>
    <g id="Page-1" stroke="none" stroke-width="1" fill="none" fill-rule="evenodd">
        <g id="element-19">
            <polygon id="Polygon-Copy-56" fill="#FFFFFF" points="42.02147 16 70.0429399 32.1782032 70.0429399 64.5346097 42.02147 80.7128129 14 64.5346097 14 32.1782032"></polygon>
            <path d="M1.5,24.9724319 L1.5,71.7625951 L42.02147,95.1576766 L82.5429399,71.7625951 L82.5429399,24.9724319 L42.02147,1.57735027 L1.5,24.9724319 Z M83.5429399,24.3950816 L83.5429399,72.3399453 L42.02147,96.3123772 L0.5,72.3399453 L0.5,24.3950816 L42.02147,0.422649731 L83.5429399,24.3950816 Z" id="Polygon-Copy-76" fill="#FFFFFF" fill-rule="nonzero"></path>
            <path d="M37.546875,55 L35.9648438,55 L35.9648438,44.8242188 C35.9648438,43.9778604 35.9908852,43.1770871 36.0429688,42.421875 C35.9062493,42.5585944 35.7532561,42.7018222 35.5839844,42.8515625 C35.4147127,43.0013028 34.6399809,43.6360621 33.2597656,44.7558594 L32.4003906,43.6425781 L36.1796875,40.7226562 L37.546875,40.7226562 L37.546875,55 Z M52.3613281,46.8164062 C52.3613281,52.4023717 50.1998914,55.1953125 45.8769531,55.1953125 C45.121741,55.1953125 44.5227887,55.130209 44.0800781,55 L44.0800781,53.6035156 C44.6009141,53.7727873 45.1933561,53.8574219 45.8574219,53.8574219 C47.4199297,53.8574219 48.5999309,53.3740283 49.3974609,52.4072266 C50.194991,51.4404249 50.6295569,49.9576923 50.7011719,47.9589844 L50.5839844,47.9589844 C50.2259097,48.4993517 49.750654,48.9111314 49.1582031,49.1943359 C48.5657522,49.4775405 47.8984412,49.6191406 47.15625,49.6191406 C45.8932229,49.6191406 44.8906287,49.2415402 44.1484375,48.4863281 C43.4062463,47.731116 43.0351562,46.6764391 43.0351562,45.3222656 C43.0351562,43.8378832 43.4501912,42.6660199 44.2802734,41.8066406 C45.1103557,40.9472613 46.2024672,40.5175781 47.5566406,40.5175781 C48.5266976,40.5175781 49.3746708,40.7665991 50.1005859,41.2646484 C50.826501,41.7626978 51.3847637,42.488602 51.7753906,43.4423828 C52.1660176,44.3961636 52.3613281,45.5208269 52.3613281,46.8164062 Z M47.5566406,41.9042969 C46.6256464,41.9042969 45.9062525,42.203773 45.3984375,42.8027344 C44.8906225,43.4016957 44.6367188,44.2350207 44.6367188,45.3027344 C44.6367188,46.2402391 44.8710914,46.9775364 45.3398438,47.5146484 C45.8085961,48.0517605 46.5214796,48.3203125 47.4785156,48.3203125 C48.0709665,48.3203125 48.6162084,48.199871 49.1142578,47.9589844 C49.6123072,47.7180978 50.0045559,47.389325 50.2910156,46.9726562 C50.5774754,46.5559875 50.7207031,46.1197939 50.7207031,45.6640625 C50.7207031,44.9804653 50.5872409,44.3489612 50.3203125,43.7695312 C50.0533841,43.1901013 49.6806665,42.7343767 49.2021484,42.4023438 C48.7236304,42.0703108 48.1751333,41.9042969 47.5566406,41.9042969 Z" id="19-copy" fill="#8A9A9E"></path>
        </g>
    </g>
</svg>