<?xml version="1.0" encoding="UTF-8"?>
<svg width="84px" height="97px" viewBox="0 0 84 97" version="1.1" xmlns="http://www.w3.org/2000/svg" xmlns:xlink="http://www.w3.org/1999/xlink">
    <!-- Generator: Sketch 43.2 (39069) - http://www.bohemiancoding.com/sketch -->
    <title>element-18</title>
    <desc>Created with Sketch.</desc>
    <defs></defs>
    <g id="Page-1" stroke="none" stroke-width="1" fill="none" fill-rule="evenodd">
        <g id="element-18">
            <polygon id="Polygon-Copy-52" fill="#FFFFFF" points="42.02147 16 70.0429399 32.1782032 70.0429399 64.5346097 42.02147 80.7128129 14 64.5346097 14 32.1782032"></polygon>
            <path d="M1.5,24.9724319 L1.5,71.7625951 L42.02147,95.1576766 L82.5429399,71.7625951 L82.5429399,24.9724319 L42.02147,1.57735027 L1.5,24.9724319 Z M83.5429399,24.3950816 L83.5429399,72.3399453 L42.02147,96.3123772 L0.5,72.3399453 L0.5,24.3950816 L42.02147,0.422649731 L83.5429399,24.3950816 Z" id="Polygon-Copy-72" fill="#FFFFFF" fill-rule="nonzero"></path>
            <path d="M37.546875,55 L35.9648438,55 L35.9648438,44.8242188 C35.9648438,43.9778604 35.9908852,43.1770871 36.0429688,42.421875 C35.9062493,42.5585944 35.7532561,42.7018222 35.5839844,42.8515625 C35.4147127,43.0013028 34.6399809,43.6360621 33.2597656,44.7558594 L32.4003906,43.6425781 L36.1796875,40.7226562 L37.546875,40.7226562 L37.546875,55 Z M47.703125,40.5175781 C49.0052148,40.5175781 50.0371056,40.8203095 50.7988281,41.4257812 C51.5605507,42.031253 51.9414062,42.8678332 51.9414062,43.9355469 C51.9414062,44.6386754 51.7233095,45.279945 51.2871094,45.859375 C50.8509093,46.438805 50.1543017,46.9661435 49.1972656,47.4414062 C50.3561256,47.9947944 51.1796851,48.5758433 51.6679688,49.1845703 C52.1562524,49.7932973 52.4003906,50.4980429 52.4003906,51.2988281 C52.4003906,52.4837299 51.9869833,53.4293584 51.1601562,54.1357422 C50.3333292,54.8421259 49.200528,55.1953125 47.7617188,55.1953125 C46.2382736,55.1953125 45.0664104,54.861657 44.2460938,54.1943359 C43.4257771,53.5270149 43.015625,52.5813863 43.015625,51.3574219 C43.015625,49.7232991 44.0117088,48.4505254 46.0039062,47.5390625 C45.1054643,47.0312475 44.4609395,46.4827503 44.0703125,45.8935547 C43.6796855,45.304359 43.484375,44.6451859 43.484375,43.9160156 C43.484375,42.8808542 43.8668582,42.0556671 44.6318359,41.4404297 C45.3968137,40.8251922 46.4205665,40.5175781 47.703125,40.5175781 Z M44.6171875,51.3964844 C44.6171875,52.1777383 44.8889947,52.7864562 45.4326172,53.2226562 C45.9762397,53.6588563 46.7395784,53.8769531 47.7226562,53.8769531 C48.6927132,53.8769531 49.447914,53.6490908 49.9882812,53.1933594 C50.5286485,52.7376279 50.7988281,52.1126342 50.7988281,51.3183594 C50.7988281,50.6868458 50.5449244,50.125328 50.0371094,49.6337891 C49.5292943,49.1422501 48.6438865,48.6653669 47.3808594,48.203125 C46.4108024,48.6197937 45.7076845,49.0804011 45.2714844,49.5849609 C44.8352843,50.0895208 44.6171875,50.6933559 44.6171875,51.3964844 Z M47.6835938,41.8359375 C46.8697876,41.8359375 46.2317731,42.031248 45.7695312,42.421875 C45.3072894,42.812502 45.0761719,43.3333301 45.0761719,43.984375 C45.0761719,44.5833363 45.2682272,45.0976541 45.6523438,45.5273438 C46.0364603,45.9570334 46.7460886,46.3867166 47.78125,46.8164062 C48.7122442,46.4257793 49.3714173,46.0058616 49.7587891,45.5566406 C50.1461608,45.1074196 50.3398438,44.5833363 50.3398438,43.984375 C50.3398438,43.3268196 50.1038435,42.8043639 49.6318359,42.4169922 C49.1598284,42.0296205 48.5104208,41.8359375 47.6835938,41.8359375 Z" id="18-copy" fill="#8A9A9E"></path>
        </g>
    </g>
</svg>