<?xml version="1.0" encoding="UTF-8"?>
<svg width="84px" height="97px" viewBox="0 0 84 97" version="1.1" xmlns="http://www.w3.org/2000/svg" xmlns:xlink="http://www.w3.org/1999/xlink">
    <!-- Generator: Sketch 43.2 (39069) - http://www.bohemiancoding.com/sketch -->
    <title>element-3</title>
    <desc>Created with Sketch.</desc>
    <defs></defs>
    <g id="Page-1" stroke="none" stroke-width="1" fill="none" fill-rule="evenodd">
        <g id="element-3">
            <polygon id="Polygon-Copy-41" fill="#FFFFFF" points="42.02147 16 70.0429399 32.1782032 70.0429399 64.5346097 42.02147 80.7128129 14 64.5346097 14 32.1782032"></polygon>
            <path d="M1.5,24.9724319 L1.5,71.7625951 L42.02147,95.1576766 L82.5429399,71.7625951 L82.5429399,24.9724319 L42.02147,1.57735027 L1.5,24.9724319 Z M83.5429399,24.3950816 L83.5429399,72.3399453 L42.02147,96.3123772 L0.5,72.3399453 L0.5,24.3950816 L42.02147,0.422649731 L83.5429399,24.3950816 Z" id="Polygon-Copy-61" fill="#FFFFFF" fill-rule="nonzero"></path>
            <path d="M46.1064453,44.0820312 C46.1064453,44.9934941 45.850914,45.7389294 45.3398438,46.3183594 C44.8287735,46.8977894 44.1044969,47.2851553 43.1669922,47.4804688 L43.1669922,47.5585938 C44.3128313,47.7018236 45.1624321,48.0664033 45.7158203,48.6523438 C46.2692085,49.2382842 46.5458984,50.0065057 46.5458984,50.9570312 C46.5458984,52.3177151 46.0738979,53.3642542 45.1298828,54.0966797 C44.1858677,54.8291052 42.8447353,55.1953125 41.1064453,55.1953125 C40.3512332,55.1953125 39.6595083,55.1383469 39.03125,55.0244141 C38.4029917,54.9104812 37.7926462,54.7102879 37.2001953,54.4238281 L37.2001953,52.8808594 C37.818688,53.1868505 38.4778611,53.4195956 39.1777344,53.5791016 C39.8776077,53.7386076 40.5400359,53.8183594 41.1650391,53.8183594 C43.6324993,53.8183594 44.8662109,52.8515722 44.8662109,50.9179688 C44.8662109,49.1861893 43.5055475,48.3203125 40.7841797,48.3203125 L39.3779297,48.3203125 L39.3779297,46.9238281 L40.8037109,46.9238281 C41.9169978,46.9238281 42.7991504,46.6780624 43.4501953,46.1865234 C44.1012402,45.6949845 44.4267578,45.0130252 44.4267578,44.140625 C44.4267578,43.4440069 44.1875024,42.8971374 43.7089844,42.5 C43.2304664,42.1028626 42.5810588,41.9042969 41.7607422,41.9042969 C41.1357391,41.9042969 40.5465522,41.9889314 39.9931641,42.1582031 C39.4397759,42.3274748 38.8082718,42.6399717 38.0986328,43.0957031 L37.2783203,42.0019531 C37.8642607,41.5397112 38.5397097,41.1767591 39.3046875,40.9130859 C40.0696653,40.6494127 40.8753213,40.5175781 41.7216797,40.5175781 C43.1084054,40.5175781 44.1858686,40.8349578 44.9541016,41.4697266 C45.7223346,42.1044954 46.1064453,42.9752549 46.1064453,44.0820312 Z" id="3-copy" fill="#8A9A9E"></path>
        </g>
    </g>
</svg>