<?xml version="1.0" encoding="UTF-8"?>
<svg width="84px" height="97px" viewBox="0 0 84 97" version="1.1" xmlns="http://www.w3.org/2000/svg" xmlns:xlink="http://www.w3.org/1999/xlink">
    <!-- Generator: Sketch 43.2 (39069) - http://www.bohemiancoding.com/sketch -->
    <title>element-14</title>
    <desc>Created with Sketch.</desc>
    <defs></defs>
    <g id="Page-1" stroke="none" stroke-width="1" fill="none" fill-rule="evenodd">
        <g id="element-14">
            <polygon id="Polygon-Copy-55" fill="#FFFFFF" points="42.02147 16 70.0429399 32.1782032 70.0429399 64.5346097 42.02147 80.7128129 14 64.5346097 14 32.1782032"></polygon>
            <path d="M1.5,24.9724319 L1.5,71.7625951 L42.02147,95.1576766 L82.5429399,71.7625951 L82.5429399,24.9724319 L42.02147,1.57735027 L1.5,24.9724319 Z M83.5429399,24.3950816 L83.5429399,72.3399453 L42.02147,96.3123772 L0.5,72.3399453 L0.5,24.3950816 L42.02147,0.422649731 L83.5429399,24.3950816 Z" id="Polygon-Copy-75" fill="#FFFFFF" fill-rule="nonzero"></path>
            <path d="M37.546875,55 L35.9648438,55 L35.9648438,44.8242188 C35.9648438,43.9778604 35.9908852,43.1770871 36.0429688,42.421875 C35.9062493,42.5585944 35.7532561,42.7018222 35.5839844,42.8515625 C35.4147127,43.0013028 34.6399809,43.6360621 33.2597656,44.7558594 L32.4003906,43.6425781 L36.1796875,40.7226562 L37.546875,40.7226562 L37.546875,55 Z M53.0351562,51.71875 L50.9160156,51.71875 L50.9160156,55 L49.3632812,55 L49.3632812,51.71875 L42.4199219,51.71875 L42.4199219,50.3027344 L49.1972656,40.6445312 L50.9160156,40.6445312 L50.9160156,50.2441406 L53.0351562,50.2441406 L53.0351562,51.71875 Z M49.3632812,50.2441406 L49.3632812,45.4980469 C49.3632812,44.5670526 49.395833,43.5156309 49.4609375,42.34375 L49.3828125,42.34375 C49.0703109,42.9687531 48.7773451,43.4863261 48.5039062,43.8964844 L44.0410156,50.2441406 L49.3632812,50.2441406 Z" id="14-copy" fill="#8A9A9E"></path>
        </g>
    </g>
</svg>